<svg xmlns="http://www.w3.org/2000/svg" xmlns:xlink="http://www.w3.org/1999/xlink" width="24" height="24" style="-ms-transform: rotate(360deg); -webkit-transform: rotate(360deg); transform: rotate(360deg);" preserveAspectRatio="xMidYMid meet" viewBox="0 0 24 24"><path d="M5 3h14a2 2 0 0 1 2 2v14a2 2 0 0 1-2 2H5a2 2 0 0 1-2-2V5a2 2 0 0 1 2-2zm2 2a2 2 0 1 0 0 4 2 2 0 0 0 0-4zm10 10a2 2 0 1 0 0 4 2 2 0 0 0 0-4zm0-5a2 2 0 1 0 0 4 2 2 0 0 0 0-4zm0-5a2 2 0 1 0 0 4 2 2 0 0 0 0-4zM7 10a2 2 0 1 0 0 4 2 2 0 0 0 0-4zm0 5a2 2 0 1 0 0 4 2 2 0 0 0 0-4z" fill="#ffffff"/><rect x="0" y="0" width="24" height="24" fill="rgba(0, 0, 0, 0)" /></svg>
